<svg width="367" height="339" viewBox="0 0 367 339" fill="none" xmlns="http://www.w3.org/2000/svg">
<path d="M319 268.84C319 279.987 319.587 289.08 320.76 296.12C321.933 302.867 324.133 308.147 327.36 311.96C330.88 315.48 335.72 317.973 341.88 319.44C348.333 320.907 356.693 321.787 366.96 322.08V338.8H224.4V322.08C234.667 321.787 242.88 320.907 249.04 319.44C255.493 317.973 260.48 315.48 264 311.96C267.52 308.44 269.867 303.453 271.04 297C272.213 290.547 272.8 282.187 272.8 271.92V176.44H94.6V268.84C94.6 279.987 95.1867 289.08 96.36 296.12C97.5333 302.867 99.7333 308.147 102.96 311.96C106.48 315.48 111.32 317.973 117.48 319.44C123.933 320.907 132.293 321.787 142.56 322.08V338.8H0V322.08C10.2667 321.787 18.48 320.907 24.64 319.44C31.0933 317.973 36.08 315.48 39.6 311.96C43.12 308.44 45.4667 303.453 46.64 297C47.8133 290.547 48.4 282.187 48.4 271.92V66.88C48.4 56.6133 47.8133 48.4 46.64 42.24C45.76 35.7867 43.7067 30.8 40.48 27.28C37.5467 23.4667 33.1467 20.9733 27.28 19.8C21.4133 18.3333 13.7867 17.3067 4.4 16.72V0H138.16V16.72C128.773 17.0133 121.147 17.8933 115.28 19.36C109.707 20.8267 105.307 23.4667 102.08 27.28C99.1467 31.0933 97.0933 36.3733 95.92 43.12C95.04 49.8667 94.6 58.8133 94.6 69.96V154.44H272.8V66.88C272.8 56.6133 272.213 48.4 271.04 42.24C270.16 35.7867 268.107 30.8 264.88 27.28C261.947 23.4667 257.547 20.9733 251.68 19.8C245.813 18.3333 238.187 17.3067 228.8 16.72V0H362.56V16.72C353.173 17.0133 345.547 17.8933 339.68 19.36C334.107 20.8267 329.707 23.4667 326.48 27.28C323.547 31.0933 321.493 36.3733 320.32 43.12C319.44 49.8667 319 58.8133 319 69.96V268.84Z" fill="black"/>
</svg>
